<mxfile host="app.diagrams.net" modified="2023-03-21T23:21:33.268Z" agent="5.0 (Windows NT 10.0; Win64; x64) AppleWebKit/537.36 (KHTML, like Gecko) Chrome/111.0.0.0 Safari/537.36" etag="K1JnyN_s0vJGYEt7ESCQ" version="21.0.6" type="github" pages="2">
  <diagram name="Página-1" id="OLqM8g1zS567R2F8B3zY">
    <mxGraphModel dx="521" dy="531" grid="1" gridSize="10" guides="1" tooltips="1" connect="1" arrows="1" fold="1" page="1" pageScale="1" pageWidth="827" pageHeight="1169" math="0" shadow="0">
      <root>
        <mxCell id="0" />
        <mxCell id="1" parent="0" />
        <mxCell id="qf9N6m93d-RgQ3LeR_Vi-5" value="Dep. Análisis y&amp;nbsp; Seguridad" style="swimlane;whiteSpace=wrap;html=1;" parent="1" vertex="1">
          <mxGeometry x="170" y="20" width="150" height="1080" as="geometry" />
        </mxCell>
        <mxCell id="qf9N6m93d-RgQ3LeR_Vi-19" value="" style="edgeStyle=orthogonalEdgeStyle;rounded=0;orthogonalLoop=1;jettySize=auto;html=1;" parent="qf9N6m93d-RgQ3LeR_Vi-5" source="qf9N6m93d-RgQ3LeR_Vi-16" target="qf9N6m93d-RgQ3LeR_Vi-18" edge="1">
          <mxGeometry relative="1" as="geometry" />
        </mxCell>
        <mxCell id="qf9N6m93d-RgQ3LeR_Vi-16" value="Realizar un análisis de la intrusión" style="whiteSpace=wrap;html=1;fillColor=none;sketch=0;fillStyle=solid;" parent="qf9N6m93d-RgQ3LeR_Vi-5" vertex="1">
          <mxGeometry x="25" y="143.12" width="95" height="38.75" as="geometry" />
        </mxCell>
        <mxCell id="qf9N6m93d-RgQ3LeR_Vi-21" value="" style="edgeStyle=orthogonalEdgeStyle;rounded=0;orthogonalLoop=1;jettySize=auto;html=1;" parent="qf9N6m93d-RgQ3LeR_Vi-5" source="qf9N6m93d-RgQ3LeR_Vi-18" target="qf9N6m93d-RgQ3LeR_Vi-20" edge="1">
          <mxGeometry relative="1" as="geometry" />
        </mxCell>
        <mxCell id="qf9N6m93d-RgQ3LeR_Vi-18" value="Clasificar intrusión" style="whiteSpace=wrap;html=1;fillColor=none;sketch=0;fillStyle=solid;" parent="qf9N6m93d-RgQ3LeR_Vi-5" vertex="1">
          <mxGeometry x="21.25" y="230" width="102.5" height="40" as="geometry" />
        </mxCell>
        <mxCell id="qf9N6m93d-RgQ3LeR_Vi-23" value="" style="edgeStyle=orthogonalEdgeStyle;rounded=0;orthogonalLoop=1;jettySize=auto;html=1;" parent="qf9N6m93d-RgQ3LeR_Vi-5" source="qf9N6m93d-RgQ3LeR_Vi-20" target="qf9N6m93d-RgQ3LeR_Vi-22" edge="1">
          <mxGeometry relative="1" as="geometry" />
        </mxCell>
        <mxCell id="qf9N6m93d-RgQ3LeR_Vi-20" value="" style="rhombus;whiteSpace=wrap;html=1;fillColor=none;sketch=0;fillStyle=solid;" parent="qf9N6m93d-RgQ3LeR_Vi-5" vertex="1">
          <mxGeometry x="38.75" y="330" width="67.5" height="60" as="geometry" />
        </mxCell>
        <mxCell id="P6YCqenQnONLHxGpqrmW-2" value="" style="edgeStyle=orthogonalEdgeStyle;rounded=0;orthogonalLoop=1;jettySize=auto;html=1;" parent="qf9N6m93d-RgQ3LeR_Vi-5" source="qf9N6m93d-RgQ3LeR_Vi-22" target="P6YCqenQnONLHxGpqrmW-1" edge="1">
          <mxGeometry relative="1" as="geometry" />
        </mxCell>
        <mxCell id="qf9N6m93d-RgQ3LeR_Vi-22" value="Actualizar BBDD" style="whiteSpace=wrap;html=1;fillColor=none;sketch=0;fillStyle=solid;" parent="qf9N6m93d-RgQ3LeR_Vi-5" vertex="1">
          <mxGeometry x="13.75" y="440" width="117.5" height="30" as="geometry" />
        </mxCell>
        <mxCell id="qf9N6m93d-RgQ3LeR_Vi-26" value="¿Leve?" style="text;strokeColor=none;align=center;fillColor=none;html=1;verticalAlign=middle;whiteSpace=wrap;rounded=0;" parent="qf9N6m93d-RgQ3LeR_Vi-5" vertex="1">
          <mxGeometry x="42.5" y="345" width="60" height="30" as="geometry" />
        </mxCell>
        <mxCell id="qf9N6m93d-RgQ3LeR_Vi-27" value="Sí" style="text;strokeColor=none;align=center;fillColor=none;html=1;verticalAlign=middle;whiteSpace=wrap;rounded=0;" parent="qf9N6m93d-RgQ3LeR_Vi-5" vertex="1">
          <mxGeometry x="13.75" y="390" width="60" height="30" as="geometry" />
        </mxCell>
        <mxCell id="qf9N6m93d-RgQ3LeR_Vi-28" value="No" style="text;strokeColor=none;align=center;fillColor=none;html=1;verticalAlign=middle;whiteSpace=wrap;rounded=0;" parent="qf9N6m93d-RgQ3LeR_Vi-5" vertex="1">
          <mxGeometry x="90" y="320" width="60" height="30" as="geometry" />
        </mxCell>
        <mxCell id="P6YCqenQnONLHxGpqrmW-5" value="" style="edgeStyle=orthogonalEdgeStyle;rounded=0;orthogonalLoop=1;jettySize=auto;html=1;" parent="qf9N6m93d-RgQ3LeR_Vi-5" source="P6YCqenQnONLHxGpqrmW-1" target="P6YCqenQnONLHxGpqrmW-4" edge="1">
          <mxGeometry relative="1" as="geometry" />
        </mxCell>
        <mxCell id="P6YCqenQnONLHxGpqrmW-1" value="" style="verticalLabelPosition=bottom;verticalAlign=top;html=1;shape=mxgraph.flowchart.collate;" parent="qf9N6m93d-RgQ3LeR_Vi-5" vertex="1">
          <mxGeometry x="54" y="520" width="36" height="45" as="geometry" />
        </mxCell>
        <mxCell id="P6YCqenQnONLHxGpqrmW-3" value="Esperar 2 semanas" style="text;strokeColor=none;align=center;fillColor=none;html=1;verticalAlign=middle;whiteSpace=wrap;rounded=0;" parent="qf9N6m93d-RgQ3LeR_Vi-5" vertex="1">
          <mxGeometry x="80" y="490" width="60" height="30" as="geometry" />
        </mxCell>
        <mxCell id="P6YCqenQnONLHxGpqrmW-4" value="" style="ellipse;html=1;shape=endState;fillColor=#000000;strokeColor=#ff0000;" parent="qf9N6m93d-RgQ3LeR_Vi-5" vertex="1">
          <mxGeometry x="57" y="610" width="30" height="30" as="geometry" />
        </mxCell>
        <mxCell id="P6YCqenQnONLHxGpqrmW-15" value="" style="edgeStyle=orthogonalEdgeStyle;rounded=0;orthogonalLoop=1;jettySize=auto;html=1;" parent="qf9N6m93d-RgQ3LeR_Vi-5" source="P6YCqenQnONLHxGpqrmW-11" target="P6YCqenQnONLHxGpqrmW-14" edge="1">
          <mxGeometry relative="1" as="geometry" />
        </mxCell>
        <mxCell id="P6YCqenQnONLHxGpqrmW-11" value="Análisis de riesgos para cada activo de la lista" style="whiteSpace=wrap;html=1;fillColor=none;sketch=0;fillStyle=solid;" parent="qf9N6m93d-RgQ3LeR_Vi-5" vertex="1">
          <mxGeometry x="9.5" y="670" width="120" height="60" as="geometry" />
        </mxCell>
        <mxCell id="P6YCqenQnONLHxGpqrmW-17" value="" style="edgeStyle=orthogonalEdgeStyle;rounded=0;orthogonalLoop=1;jettySize=auto;html=1;" parent="qf9N6m93d-RgQ3LeR_Vi-5" source="P6YCqenQnONLHxGpqrmW-14" target="P6YCqenQnONLHxGpqrmW-16" edge="1">
          <mxGeometry relative="1" as="geometry" />
        </mxCell>
        <mxCell id="P6YCqenQnONLHxGpqrmW-14" value="¿Supera el umbral crírico?" style="rhombus;whiteSpace=wrap;html=1;fillColor=none;sketch=0;fillStyle=solid;" parent="qf9N6m93d-RgQ3LeR_Vi-5" vertex="1">
          <mxGeometry x="40" y="800" width="60" height="50" as="geometry" />
        </mxCell>
        <mxCell id="P6YCqenQnONLHxGpqrmW-16" value="Activación plan de emergencias" style="whiteSpace=wrap;html=1;fillColor=none;sketch=0;fillStyle=solid;" parent="qf9N6m93d-RgQ3LeR_Vi-5" vertex="1">
          <mxGeometry x="42.5" y="900" width="97.5" height="45" as="geometry" />
        </mxCell>
        <mxCell id="qf9N6m93d-RgQ3LeR_Vi-7" value="Directiva de seguridad" style="swimlane;whiteSpace=wrap;html=1;" parent="1" vertex="1">
          <mxGeometry x="460" y="20" width="149.5" height="1080" as="geometry" />
        </mxCell>
        <mxCell id="qf9N6m93d-RgQ3LeR_Vi-8" value="Incibe" style="swimlane;whiteSpace=wrap;html=1;" parent="1" vertex="1">
          <mxGeometry x="610" y="20" width="150" height="1080" as="geometry" />
        </mxCell>
        <mxCell id="qf9N6m93d-RgQ3LeR_Vi-33" value="Genera información&amp;nbsp;" style="whiteSpace=wrap;html=1;fillColor=none;sketch=0;fillStyle=solid;" parent="qf9N6m93d-RgQ3LeR_Vi-8" vertex="1">
          <mxGeometry x="20" y="450" width="120" height="60" as="geometry" />
        </mxCell>
        <mxCell id="qf9N6m93d-RgQ3LeR_Vi-9" value="Sistema de Producción" style="swimlane;whiteSpace=wrap;html=1;" parent="1" vertex="1">
          <mxGeometry x="20" y="20" width="150" height="1080" as="geometry" />
        </mxCell>
        <mxCell id="qf9N6m93d-RgQ3LeR_Vi-13" value="" style="edgeStyle=orthogonalEdgeStyle;rounded=0;orthogonalLoop=1;jettySize=auto;html=1;" parent="qf9N6m93d-RgQ3LeR_Vi-9" source="qf9N6m93d-RgQ3LeR_Vi-11" target="qf9N6m93d-RgQ3LeR_Vi-12" edge="1">
          <mxGeometry relative="1" as="geometry" />
        </mxCell>
        <mxCell id="qf9N6m93d-RgQ3LeR_Vi-11" value="" style="shape=waypoint;sketch=0;fillStyle=solid;size=6;pointerEvents=1;points=[];fillColor=none;resizable=0;rotatable=0;perimeter=centerPerimeter;snapToPoint=1;" parent="qf9N6m93d-RgQ3LeR_Vi-9" vertex="1">
          <mxGeometry x="50" y="30" width="20" height="20" as="geometry" />
        </mxCell>
        <mxCell id="qf9N6m93d-RgQ3LeR_Vi-15" value="" style="edgeStyle=orthogonalEdgeStyle;rounded=0;orthogonalLoop=1;jettySize=auto;html=1;" parent="qf9N6m93d-RgQ3LeR_Vi-9" source="qf9N6m93d-RgQ3LeR_Vi-12" target="qf9N6m93d-RgQ3LeR_Vi-14" edge="1">
          <mxGeometry relative="1" as="geometry" />
        </mxCell>
        <mxCell id="qf9N6m93d-RgQ3LeR_Vi-12" value="Detectar intrusión" style="whiteSpace=wrap;html=1;fillColor=none;sketch=0;fillStyle=solid;" parent="qf9N6m93d-RgQ3LeR_Vi-9" vertex="1">
          <mxGeometry x="10" y="80" width="100" height="30" as="geometry" />
        </mxCell>
        <mxCell id="qf9N6m93d-RgQ3LeR_Vi-14" value="Clasificar los principales atributos" style="whiteSpace=wrap;html=1;fillColor=none;sketch=0;fillStyle=solid;" parent="qf9N6m93d-RgQ3LeR_Vi-9" vertex="1">
          <mxGeometry x="5" y="150" width="110" height="25" as="geometry" />
        </mxCell>
        <mxCell id="qf9N6m93d-RgQ3LeR_Vi-17" value="" style="edgeStyle=orthogonalEdgeStyle;rounded=0;orthogonalLoop=1;jettySize=auto;html=1;" parent="1" source="qf9N6m93d-RgQ3LeR_Vi-14" target="qf9N6m93d-RgQ3LeR_Vi-16" edge="1">
          <mxGeometry relative="1" as="geometry" />
        </mxCell>
        <mxCell id="qf9N6m93d-RgQ3LeR_Vi-6" value="Dep. IT" style="swimlane;whiteSpace=wrap;html=1;startSize=23;" parent="1" vertex="1">
          <mxGeometry x="320" y="20" width="140" height="1080" as="geometry" />
        </mxCell>
        <mxCell id="qf9N6m93d-RgQ3LeR_Vi-30" value="" style="edgeStyle=orthogonalEdgeStyle;rounded=0;orthogonalLoop=1;jettySize=auto;html=1;entryX=0.5;entryY=0;entryDx=0;entryDy=0;" parent="qf9N6m93d-RgQ3LeR_Vi-6" source="qf9N6m93d-RgQ3LeR_Vi-24" target="qf9N6m93d-RgQ3LeR_Vi-31" edge="1">
          <mxGeometry relative="1" as="geometry">
            <mxPoint x="69.5" y="450" as="targetPoint" />
          </mxGeometry>
        </mxCell>
        <mxCell id="qf9N6m93d-RgQ3LeR_Vi-24" value="Realiza el inventariado del equipo y genera lista de activos expuestos" style="whiteSpace=wrap;html=1;fillColor=none;sketch=0;fillStyle=solid;" parent="qf9N6m93d-RgQ3LeR_Vi-6" vertex="1">
          <mxGeometry x="23" y="325" width="94" height="70" as="geometry" />
        </mxCell>
        <mxCell id="P6YCqenQnONLHxGpqrmW-8" value="" style="edgeStyle=orthogonalEdgeStyle;rounded=0;orthogonalLoop=1;jettySize=auto;html=1;" parent="qf9N6m93d-RgQ3LeR_Vi-6" source="qf9N6m93d-RgQ3LeR_Vi-31" target="P6YCqenQnONLHxGpqrmW-7" edge="1">
          <mxGeometry relative="1" as="geometry" />
        </mxCell>
        <mxCell id="qf9N6m93d-RgQ3LeR_Vi-31" value="¿Grave?&lt;br&gt;¿Muy grave?" style="rhombus;whiteSpace=wrap;html=1;fillColor=none;sketch=0;fillStyle=solid;" parent="qf9N6m93d-RgQ3LeR_Vi-6" vertex="1">
          <mxGeometry x="29.5" y="440" width="80" height="80" as="geometry" />
        </mxCell>
        <mxCell id="qf9N6m93d-RgQ3LeR_Vi-37" value="Grave" style="text;strokeColor=none;align=center;fillColor=none;html=1;verticalAlign=middle;whiteSpace=wrap;rounded=0;" parent="qf9N6m93d-RgQ3LeR_Vi-6" vertex="1">
          <mxGeometry y="420" width="60" height="30" as="geometry" />
        </mxCell>
        <mxCell id="qf9N6m93d-RgQ3LeR_Vi-38" value="Muy grave" style="text;strokeColor=none;align=center;fillColor=none;html=1;verticalAlign=middle;whiteSpace=wrap;rounded=0;" parent="qf9N6m93d-RgQ3LeR_Vi-6" vertex="1">
          <mxGeometry x="94" y="450" width="36" height="20" as="geometry" />
        </mxCell>
        <mxCell id="P6YCqenQnONLHxGpqrmW-7" value="" style="rhombus;whiteSpace=wrap;html=1;fillColor=none;sketch=0;fillStyle=solid;" parent="qf9N6m93d-RgQ3LeR_Vi-6" vertex="1">
          <mxGeometry x="34.75" y="670" width="70.5" height="60" as="geometry" />
        </mxCell>
        <mxCell id="qf9N6m93d-RgQ3LeR_Vi-25" value="" style="edgeStyle=orthogonalEdgeStyle;rounded=0;orthogonalLoop=1;jettySize=auto;html=1;" parent="1" source="qf9N6m93d-RgQ3LeR_Vi-20" target="qf9N6m93d-RgQ3LeR_Vi-24" edge="1">
          <mxGeometry relative="1" as="geometry" />
        </mxCell>
        <mxCell id="qf9N6m93d-RgQ3LeR_Vi-34" value="" style="edgeStyle=orthogonalEdgeStyle;rounded=0;orthogonalLoop=1;jettySize=auto;html=1;" parent="1" source="qf9N6m93d-RgQ3LeR_Vi-31" target="qf9N6m93d-RgQ3LeR_Vi-33" edge="1">
          <mxGeometry relative="1" as="geometry" />
        </mxCell>
        <mxCell id="fDK0BzUkPO_lQ39MmMM3-2" value="" style="edgeStyle=orthogonalEdgeStyle;rounded=0;orthogonalLoop=1;jettySize=auto;html=1;" parent="1" source="qf9N6m93d-RgQ3LeR_Vi-31" target="qf9N6m93d-RgQ3LeR_Vi-33" edge="1">
          <mxGeometry relative="1" as="geometry" />
        </mxCell>
        <mxCell id="P6YCqenQnONLHxGpqrmW-12" value="" style="edgeStyle=orthogonalEdgeStyle;rounded=0;orthogonalLoop=1;jettySize=auto;html=1;" parent="1" source="P6YCqenQnONLHxGpqrmW-7" target="P6YCqenQnONLHxGpqrmW-11" edge="1">
          <mxGeometry relative="1" as="geometry" />
        </mxCell>
      </root>
    </mxGraphModel>
  </diagram>
  <diagram id="z1HNoc3UqeWXknCPnFcT" name="Página-2">
    <mxGraphModel dx="1843" dy="773" grid="1" gridSize="10" guides="1" tooltips="1" connect="1" arrows="1" fold="1" page="1" pageScale="1" pageWidth="827" pageHeight="1169" math="0" shadow="0">
      <root>
        <mxCell id="0" />
        <mxCell id="1" parent="0" />
        <mxCell id="R80RbBcRoe1diIursg0G-1" value="Sistema de Producción" style="swimlane;whiteSpace=wrap;html=1;" vertex="1" parent="1">
          <mxGeometry x="20" y="40" width="200" height="1640" as="geometry" />
        </mxCell>
        <mxCell id="R80RbBcRoe1diIursg0G-6" value="" style="ellipse;html=1;shape=startState;fillColor=#000000;strokeColor=#000000;" vertex="1" parent="R80RbBcRoe1diIursg0G-1">
          <mxGeometry x="85" y="40" width="30" height="30" as="geometry" />
        </mxCell>
        <mxCell id="R80RbBcRoe1diIursg0G-7" value="" style="edgeStyle=orthogonalEdgeStyle;html=1;verticalAlign=bottom;endArrow=open;endSize=8;strokeColor=#000000;rounded=0;" edge="1" source="R80RbBcRoe1diIursg0G-6" parent="R80RbBcRoe1diIursg0G-1">
          <mxGeometry relative="1" as="geometry">
            <mxPoint x="100" y="130" as="targetPoint" />
          </mxGeometry>
        </mxCell>
        <mxCell id="adArxkpM5XN9gFVgzo69-3" value="" style="edgeStyle=orthogonalEdgeStyle;rounded=0;orthogonalLoop=1;jettySize=auto;html=1;" edge="1" parent="R80RbBcRoe1diIursg0G-1" source="R80RbBcRoe1diIursg0G-8" target="adArxkpM5XN9gFVgzo69-2">
          <mxGeometry relative="1" as="geometry" />
        </mxCell>
        <mxCell id="R80RbBcRoe1diIursg0G-8" value="Detectar&amp;nbsp; intrusión" style="rounded=1;whiteSpace=wrap;html=1;" vertex="1" parent="R80RbBcRoe1diIursg0G-1">
          <mxGeometry x="40" y="130" width="120" height="30" as="geometry" />
        </mxCell>
        <mxCell id="adArxkpM5XN9gFVgzo69-2" value="Detectar&amp;nbsp; intrusión" style="rounded=1;whiteSpace=wrap;html=1;" vertex="1" parent="R80RbBcRoe1diIursg0G-1">
          <mxGeometry x="40" y="200" width="120" height="30" as="geometry" />
        </mxCell>
        <mxCell id="R80RbBcRoe1diIursg0G-2" value="Dep. Análisis y Seguridad" style="swimlane;whiteSpace=wrap;html=1;" vertex="1" parent="1">
          <mxGeometry x="220" y="40" width="200" height="1640" as="geometry" />
        </mxCell>
        <mxCell id="adArxkpM5XN9gFVgzo69-7" value="" style="edgeStyle=orthogonalEdgeStyle;rounded=0;orthogonalLoop=1;jettySize=auto;html=1;" edge="1" parent="R80RbBcRoe1diIursg0G-2" source="adArxkpM5XN9gFVgzo69-4" target="adArxkpM5XN9gFVgzo69-6">
          <mxGeometry relative="1" as="geometry" />
        </mxCell>
        <mxCell id="adArxkpM5XN9gFVgzo69-4" value="Realizar análisis de la intrusión" style="whiteSpace=wrap;html=1;rounded=1;" vertex="1" parent="R80RbBcRoe1diIursg0G-2">
          <mxGeometry x="40" y="197.5" width="120" height="35" as="geometry" />
        </mxCell>
        <mxCell id="adArxkpM5XN9gFVgzo69-9" value="" style="edgeStyle=orthogonalEdgeStyle;rounded=0;orthogonalLoop=1;jettySize=auto;html=1;" edge="1" parent="R80RbBcRoe1diIursg0G-2" source="adArxkpM5XN9gFVgzo69-6" target="adArxkpM5XN9gFVgzo69-8">
          <mxGeometry relative="1" as="geometry" />
        </mxCell>
        <mxCell id="adArxkpM5XN9gFVgzo69-6" value="Clasificar intrusión" style="whiteSpace=wrap;html=1;rounded=1;" vertex="1" parent="R80RbBcRoe1diIursg0G-2">
          <mxGeometry x="40" y="280" width="120" height="30" as="geometry" />
        </mxCell>
        <mxCell id="adArxkpM5XN9gFVgzo69-11" value="" style="edgeStyle=orthogonalEdgeStyle;rounded=0;orthogonalLoop=1;jettySize=auto;html=1;" edge="1" parent="R80RbBcRoe1diIursg0G-2" source="adArxkpM5XN9gFVgzo69-8" target="adArxkpM5XN9gFVgzo69-10">
          <mxGeometry relative="1" as="geometry" />
        </mxCell>
        <mxCell id="adArxkpM5XN9gFVgzo69-8" value="¿Leve?" style="rhombus;whiteSpace=wrap;html=1;rounded=1;" vertex="1" parent="R80RbBcRoe1diIursg0G-2">
          <mxGeometry x="60" y="365" width="80" height="80" as="geometry" />
        </mxCell>
        <mxCell id="adArxkpM5XN9gFVgzo69-13" value="" style="edgeStyle=orthogonalEdgeStyle;rounded=0;orthogonalLoop=1;jettySize=auto;html=1;" edge="1" parent="R80RbBcRoe1diIursg0G-2" source="adArxkpM5XN9gFVgzo69-10" target="adArxkpM5XN9gFVgzo69-12">
          <mxGeometry relative="1" as="geometry" />
        </mxCell>
        <mxCell id="adArxkpM5XN9gFVgzo69-10" value="Actualizar BBDD" style="whiteSpace=wrap;html=1;rounded=1;" vertex="1" parent="R80RbBcRoe1diIursg0G-2">
          <mxGeometry x="40" y="485" width="120" height="60" as="geometry" />
        </mxCell>
        <mxCell id="adArxkpM5XN9gFVgzo69-15" value="" style="edgeStyle=orthogonalEdgeStyle;rounded=0;orthogonalLoop=1;jettySize=auto;html=1;" edge="1" parent="R80RbBcRoe1diIursg0G-2" source="adArxkpM5XN9gFVgzo69-12" target="adArxkpM5XN9gFVgzo69-14">
          <mxGeometry relative="1" as="geometry" />
        </mxCell>
        <mxCell id="adArxkpM5XN9gFVgzo69-12" value="" style="shape=collate;html=1;" vertex="1" parent="R80RbBcRoe1diIursg0G-2">
          <mxGeometry x="80" y="590" width="40" height="40" as="geometry" />
        </mxCell>
        <mxCell id="adArxkpM5XN9gFVgzo69-14" value="" style="ellipse;html=1;shape=endState;fillColor=strokeColor;" vertex="1" parent="R80RbBcRoe1diIursg0G-2">
          <mxGeometry x="85" y="680" width="30" height="30" as="geometry" />
        </mxCell>
        <mxCell id="adArxkpM5XN9gFVgzo69-16" value="Sí, es leve" style="text;html=1;align=center;verticalAlign=middle;resizable=0;points=[];autosize=1;strokeColor=none;fillColor=none;" vertex="1" parent="R80RbBcRoe1diIursg0G-2">
          <mxGeometry x="5" y="440" width="80" height="30" as="geometry" />
        </mxCell>
        <mxCell id="adArxkpM5XN9gFVgzo69-35" value="2 semanas" style="text;html=1;align=center;verticalAlign=middle;resizable=0;points=[];autosize=1;strokeColor=none;fillColor=none;" vertex="1" parent="R80RbBcRoe1diIursg0G-2">
          <mxGeometry x="15" y="580" width="80" height="30" as="geometry" />
        </mxCell>
        <mxCell id="adArxkpM5XN9gFVgzo69-40" value="No, grave o&lt;br&gt;&amp;nbsp;muy grave" style="text;html=1;align=center;verticalAlign=middle;resizable=0;points=[];autosize=1;strokeColor=none;fillColor=none;" vertex="1" parent="R80RbBcRoe1diIursg0G-2">
          <mxGeometry x="110" y="360" width="90" height="40" as="geometry" />
        </mxCell>
        <mxCell id="adArxkpM5XN9gFVgzo69-56" value="" style="edgeStyle=orthogonalEdgeStyle;rounded=0;orthogonalLoop=1;jettySize=auto;html=1;" edge="1" parent="R80RbBcRoe1diIursg0G-2" source="adArxkpM5XN9gFVgzo69-52" target="adArxkpM5XN9gFVgzo69-55">
          <mxGeometry relative="1" as="geometry" />
        </mxCell>
        <mxCell id="adArxkpM5XN9gFVgzo69-52" value="Análisis para &amp;lt;Activo&amp;gt; &amp;lt;i&amp;gt; de la Lista" style="rounded=1;whiteSpace=wrap;html=1;" vertex="1" parent="R80RbBcRoe1diIursg0G-2">
          <mxGeometry x="15" y="770" width="120" height="60" as="geometry" />
        </mxCell>
        <mxCell id="adArxkpM5XN9gFVgzo69-58" value="" style="edgeStyle=orthogonalEdgeStyle;rounded=0;orthogonalLoop=1;jettySize=auto;html=1;" edge="1" parent="R80RbBcRoe1diIursg0G-2" source="adArxkpM5XN9gFVgzo69-55" target="adArxkpM5XN9gFVgzo69-57">
          <mxGeometry relative="1" as="geometry" />
        </mxCell>
        <mxCell id="adArxkpM5XN9gFVgzo69-60" style="edgeStyle=orthogonalEdgeStyle;rounded=0;orthogonalLoop=1;jettySize=auto;html=1;entryX=0;entryY=0.5;entryDx=0;entryDy=0;" edge="1" parent="R80RbBcRoe1diIursg0G-2" source="adArxkpM5XN9gFVgzo69-55" target="adArxkpM5XN9gFVgzo69-52">
          <mxGeometry relative="1" as="geometry">
            <Array as="points">
              <mxPoint x="-60" y="940" />
              <mxPoint x="-60" y="800" />
            </Array>
          </mxGeometry>
        </mxCell>
        <mxCell id="adArxkpM5XN9gFVgzo69-55" value="¿&amp;lt;Activo&amp;gt; supera umbral crítico?" style="rhombus;whiteSpace=wrap;html=1;rounded=1;" vertex="1" parent="R80RbBcRoe1diIursg0G-2">
          <mxGeometry x="35" y="900" width="80" height="80" as="geometry" />
        </mxCell>
        <mxCell id="adArxkpM5XN9gFVgzo69-57" value="Activar plan de emergencias" style="whiteSpace=wrap;html=1;rounded=1;" vertex="1" parent="R80RbBcRoe1diIursg0G-2">
          <mxGeometry x="15" y="1030" width="120" height="60" as="geometry" />
        </mxCell>
        <mxCell id="adArxkpM5XN9gFVgzo69-59" value="Sí" style="text;html=1;align=center;verticalAlign=middle;resizable=0;points=[];autosize=1;strokeColor=none;fillColor=none;" vertex="1" parent="R80RbBcRoe1diIursg0G-2">
          <mxGeometry x="30" y="980" width="30" height="30" as="geometry" />
        </mxCell>
        <mxCell id="adArxkpM5XN9gFVgzo69-61" value="No" style="text;html=1;align=center;verticalAlign=middle;resizable=0;points=[];autosize=1;strokeColor=none;fillColor=none;" vertex="1" parent="R80RbBcRoe1diIursg0G-2">
          <mxGeometry x="5" y="900" width="40" height="30" as="geometry" />
        </mxCell>
        <mxCell id="R80RbBcRoe1diIursg0G-3" value="Dep. IT" style="swimlane;whiteSpace=wrap;html=1;" vertex="1" parent="1">
          <mxGeometry x="420" y="40" width="200" height="1640" as="geometry" />
        </mxCell>
        <mxCell id="adArxkpM5XN9gFVgzo69-36" style="edgeStyle=orthogonalEdgeStyle;rounded=0;orthogonalLoop=1;jettySize=auto;html=1;" edge="1" parent="R80RbBcRoe1diIursg0G-3" source="adArxkpM5XN9gFVgzo69-24" target="adArxkpM5XN9gFVgzo69-28">
          <mxGeometry relative="1" as="geometry" />
        </mxCell>
        <mxCell id="adArxkpM5XN9gFVgzo69-24" value="Realizar inventariado del equipo" style="rounded=1;whiteSpace=wrap;html=1;" vertex="1" parent="R80RbBcRoe1diIursg0G-3">
          <mxGeometry x="60" y="400" width="80" height="50" as="geometry" />
        </mxCell>
        <mxCell id="adArxkpM5XN9gFVgzo69-38" value="" style="edgeStyle=orthogonalEdgeStyle;rounded=0;orthogonalLoop=1;jettySize=auto;html=1;" edge="1" parent="R80RbBcRoe1diIursg0G-3" source="adArxkpM5XN9gFVgzo69-28" target="adArxkpM5XN9gFVgzo69-37">
          <mxGeometry relative="1" as="geometry" />
        </mxCell>
        <mxCell id="adArxkpM5XN9gFVgzo69-28" value="Lista &amp;lt;Activos&amp;gt; Expuestos" style="rounded=0;whiteSpace=wrap;html=1;" vertex="1" parent="R80RbBcRoe1diIursg0G-3">
          <mxGeometry x="55" y="490" width="90" height="40" as="geometry" />
        </mxCell>
        <mxCell id="adArxkpM5XN9gFVgzo69-50" style="edgeStyle=orthogonalEdgeStyle;rounded=0;orthogonalLoop=1;jettySize=auto;html=1;entryX=1;entryY=0.75;entryDx=0;entryDy=0;" edge="1" parent="R80RbBcRoe1diIursg0G-3" source="adArxkpM5XN9gFVgzo69-37" target="adArxkpM5XN9gFVgzo69-48">
          <mxGeometry relative="1" as="geometry">
            <Array as="points">
              <mxPoint x="100" y="790" />
            </Array>
          </mxGeometry>
        </mxCell>
        <mxCell id="adArxkpM5XN9gFVgzo69-37" value="¿Muy grave?" style="rhombus;whiteSpace=wrap;html=1;rounded=0;" vertex="1" parent="R80RbBcRoe1diIursg0G-3">
          <mxGeometry x="60" y="590" width="80" height="80" as="geometry" />
        </mxCell>
        <mxCell id="adArxkpM5XN9gFVgzo69-39" value="No, grave" style="text;html=1;align=center;verticalAlign=middle;resizable=0;points=[];autosize=1;strokeColor=none;fillColor=none;" vertex="1" parent="R80RbBcRoe1diIursg0G-3">
          <mxGeometry y="650" width="80" height="30" as="geometry" />
        </mxCell>
        <mxCell id="adArxkpM5XN9gFVgzo69-45" value="No, grave" style="text;html=1;align=center;verticalAlign=middle;resizable=0;points=[];autosize=1;strokeColor=none;fillColor=none;" vertex="1" parent="R80RbBcRoe1diIursg0G-3">
          <mxGeometry x="120" y="580" width="80" height="30" as="geometry" />
        </mxCell>
        <mxCell id="adArxkpM5XN9gFVgzo69-48" value="Lista &amp;lt;Activos&amp;gt; Expuestos" style="rounded=0;whiteSpace=wrap;html=1;" vertex="1" parent="R80RbBcRoe1diIursg0G-3">
          <mxGeometry x="-40" y="760" width="90" height="40" as="geometry" />
        </mxCell>
        <mxCell id="adArxkpM5XN9gFVgzo69-49" value="Información generada INCIBE" style="rounded=0;whiteSpace=wrap;html=1;" vertex="1" parent="R80RbBcRoe1diIursg0G-3">
          <mxGeometry x="-40" y="830" width="90" height="40" as="geometry" />
        </mxCell>
        <mxCell id="R80RbBcRoe1diIursg0G-4" value="INCIBE" style="swimlane;whiteSpace=wrap;html=1;" vertex="1" parent="1">
          <mxGeometry x="620" y="40" width="200" height="1640" as="geometry" />
        </mxCell>
        <mxCell id="adArxkpM5XN9gFVgzo69-47" style="edgeStyle=orthogonalEdgeStyle;rounded=0;orthogonalLoop=1;jettySize=auto;html=1;entryX=0.5;entryY=0;entryDx=0;entryDy=0;" edge="1" parent="R80RbBcRoe1diIursg0G-4" source="adArxkpM5XN9gFVgzo69-42" target="adArxkpM5XN9gFVgzo69-46">
          <mxGeometry relative="1" as="geometry" />
        </mxCell>
        <mxCell id="adArxkpM5XN9gFVgzo69-42" value="&lt;font style=&quot;font-size: 10px;&quot;&gt;Mensaje a través del formulario con la info. principal generada&lt;/font&gt;" style="rounded=0;whiteSpace=wrap;html=1;" vertex="1" parent="R80RbBcRoe1diIursg0G-4">
          <mxGeometry x="-10" y="605" width="100" height="50" as="geometry" />
        </mxCell>
        <mxCell id="adArxkpM5XN9gFVgzo69-46" value="Genera info. adicional" style="rounded=1;whiteSpace=wrap;html=1;" vertex="1" parent="R80RbBcRoe1diIursg0G-4">
          <mxGeometry x="40" y="710" width="120" height="60" as="geometry" />
        </mxCell>
        <mxCell id="R80RbBcRoe1diIursg0G-5" value="Directiva de Seguridad" style="swimlane;whiteSpace=wrap;html=1;" vertex="1" parent="1">
          <mxGeometry x="820" y="40" width="200" height="1640" as="geometry" />
        </mxCell>
        <mxCell id="adArxkpM5XN9gFVgzo69-5" value="" style="edgeStyle=orthogonalEdgeStyle;rounded=0;orthogonalLoop=1;jettySize=auto;html=1;" edge="1" parent="1" source="adArxkpM5XN9gFVgzo69-2" target="adArxkpM5XN9gFVgzo69-4">
          <mxGeometry relative="1" as="geometry" />
        </mxCell>
        <mxCell id="adArxkpM5XN9gFVgzo69-22" value="" style="edgeStyle=orthogonalEdgeStyle;rounded=0;orthogonalLoop=1;jettySize=auto;html=1;entryX=-0.073;entryY=0.484;entryDx=0;entryDy=0;entryPerimeter=0;" edge="1" parent="1" source="adArxkpM5XN9gFVgzo69-8">
          <mxGeometry relative="1" as="geometry">
            <mxPoint x="521.28" y="437.135" as="targetPoint" />
            <Array as="points">
              <mxPoint x="430" y="445" />
              <mxPoint x="430" y="385" />
              <mxPoint x="521" y="385" />
            </Array>
          </mxGeometry>
        </mxCell>
        <mxCell id="adArxkpM5XN9gFVgzo69-41" value="" style="rounded=0;whiteSpace=wrap;html=1;" vertex="1" parent="1">
          <mxGeometry x="330" y="480" width="120" height="60" as="geometry" />
        </mxCell>
        <mxCell id="adArxkpM5XN9gFVgzo69-44" value="" style="edgeStyle=orthogonalEdgeStyle;rounded=0;orthogonalLoop=1;jettySize=auto;html=1;" edge="1" parent="1" source="adArxkpM5XN9gFVgzo69-37" target="adArxkpM5XN9gFVgzo69-42">
          <mxGeometry relative="1" as="geometry" />
        </mxCell>
        <mxCell id="adArxkpM5XN9gFVgzo69-51" style="edgeStyle=orthogonalEdgeStyle;rounded=0;orthogonalLoop=1;jettySize=auto;html=1;entryX=1;entryY=0.5;entryDx=0;entryDy=0;" edge="1" parent="1" source="adArxkpM5XN9gFVgzo69-46" target="adArxkpM5XN9gFVgzo69-49">
          <mxGeometry relative="1" as="geometry" />
        </mxCell>
        <mxCell id="adArxkpM5XN9gFVgzo69-53" style="edgeStyle=orthogonalEdgeStyle;rounded=0;orthogonalLoop=1;jettySize=auto;html=1;entryX=1;entryY=0.5;entryDx=0;entryDy=0;" edge="1" parent="1" source="adArxkpM5XN9gFVgzo69-48" target="adArxkpM5XN9gFVgzo69-52">
          <mxGeometry relative="1" as="geometry" />
        </mxCell>
        <mxCell id="adArxkpM5XN9gFVgzo69-54" style="edgeStyle=orthogonalEdgeStyle;rounded=0;orthogonalLoop=1;jettySize=auto;html=1;entryX=1;entryY=0.75;entryDx=0;entryDy=0;" edge="1" parent="1" source="adArxkpM5XN9gFVgzo69-49" target="adArxkpM5XN9gFVgzo69-52">
          <mxGeometry relative="1" as="geometry" />
        </mxCell>
      </root>
    </mxGraphModel>
  </diagram>
</mxfile>
